<svg id="svg" version="1.1" xmlns="http://www.w3.org/2000/svg" xmlns:xlink="http://www.w3.org/1999/xlink" width="400" height="225" viewBox="0, 0, 400,225"><g id="svgg"><path id="path0" d="M104.167 63.904 C 95.710 64.214,92.083 67.294,92.083 74.167 C 92.083 81.539,95.717 84.271,105.521 84.271 C 115.229 84.271,118.958 81.467,118.958 74.167 C 118.958 66.785,114.271 63.533,104.167 63.904 M122.500 74.063 L 122.500 83.958 126.354 83.958 L 130.208 83.958 130.208 81.571 L 130.208 79.183 136.927 79.123 C 144.601 79.054,144.744 79.024,146.676 77.092 C 151.047 72.721,148.570 65.249,142.456 64.365 C 141.735 64.260,136.951 64.173,131.823 64.171 L 122.500 64.167 122.500 74.063 M181.250 74.167 L 181.250 83.958 185.104 83.958 L 188.958 83.958 188.958 74.167 L 188.958 64.375 185.104 64.375 L 181.250 64.375 181.250 74.167 M194.375 74.163 L 194.375 83.958 198.225 83.958 L 202.076 83.958 202.132 78.940 L 202.188 73.921 205.833 78.934 L 209.479 83.946 211.581 83.952 L 213.682 83.958 217.310 78.981 L 220.938 74.003 220.993 78.981 L 221.049 83.958 224.900 83.958 L 228.750 83.958 228.750 74.167 L 228.750 64.375 223.893 64.375 L 219.036 64.375 215.316 69.157 L 211.596 73.938 210.186 72.125 C 209.411 71.128,207.759 69.000,206.517 67.396 L 204.257 64.479 199.316 64.423 L 194.375 64.367 194.375 74.163 M233.793 70.885 C 233.884 79.430,234.519 81.049,238.494 82.879 C 242.996 84.952,251.901 84.911,256.073 82.797 C 259.933 80.841,260.617 78.954,260.622 70.260 L 260.625 64.375 256.667 64.375 L 252.708 64.375 252.708 69.969 C 252.708 76.221,252.662 76.436,251.105 77.345 C 249.415 78.332,244.618 78.258,243.096 77.221 C 241.561 76.177,241.570 76.217,241.493 69.985 L 241.423 64.375 237.573 64.375 L 233.723 64.375 233.793 70.885 M265.208 74.163 L 265.208 83.958 269.059 83.958 L 272.909 83.958 272.965 78.940 L 273.021 73.921 276.667 78.934 L 280.313 83.946 282.414 83.952 L 284.516 83.958 288.143 78.981 L 291.771 74.003 291.827 78.981 L 291.882 83.958 295.733 83.958 L 299.583 83.958 299.583 74.167 L 299.583 64.375 294.726 64.375 L 289.869 64.375 286.149 69.157 L 282.429 73.938 281.019 72.125 C 280.244 71.128,278.593 69.000,277.350 67.396 L 275.090 64.479 270.149 64.423 L 265.208 64.367 265.208 74.163 M107.500 70.430 C 110.064 70.845,111.042 71.876,111.042 74.167 C 111.042 76.614,109.995 77.581,106.939 77.961 C 102.402 78.524,99.939 77.189,99.939 74.167 C 99.939 71.027,102.713 69.656,107.500 70.430 M140.530 70.720 C 140.812 71.001,141.042 71.474,141.042 71.771 C 141.042 72.068,140.812 72.541,140.530 72.822 L 140.019 73.333 135.114 73.333 L 130.208 73.333 130.208 71.771 L 130.208 70.208 135.114 70.208 L 140.019 70.208 140.530 70.720 M44.792 89.529 C 36.335 89.839,32.708 92.919,32.708 99.792 C 32.708 107.164,36.342 109.896,46.146 109.896 C 55.854 109.896,59.583 107.092,59.583 99.792 C 59.583 92.410,54.896 89.158,44.792 89.529 M191.979 89.612 C 184.071 90.072,180.933 92.937,180.942 99.688 C 180.948 104.467,181.994 106.603,185.153 108.287 C 189.968 110.854,200.350 110.446,202.714 107.597 C 203.059 107.182,203.333 107.410,203.333 108.111 C 203.333 108.434,203.392 108.991,203.464 109.349 L 203.594 110.000 205.547 110.000 L 207.500 110.000 207.500 104.375 L 207.500 98.750 200.833 98.750 L 194.167 98.750 194.167 100.417 L 194.167 102.083 197.135 102.090 L 200.104 102.097 199.528 102.604 C 197.805 104.120,191.476 104.042,189.700 102.483 C 188.531 101.456,188.265 99.163,189.140 97.647 C 190.280 95.671,196.635 95.231,198.719 96.985 C 199.325 97.495,199.373 97.500,203.442 97.500 L 207.553 97.500 207.416 96.640 C 206.613 91.620,201.044 89.085,191.979 89.612 M355.000 89.529 C 346.543 89.839,342.917 92.919,342.917 99.792 C 342.917 107.164,346.550 109.896,356.354 109.896 C 366.063 109.896,369.792 107.092,369.792 99.792 C 369.792 92.410,365.104 89.158,355.000 89.529 M10.733 89.995 C 5.319 91.169,2.967 93.829,2.756 99.017 C 2.433 106.975,6.028 109.896,16.146 109.896 C 24.848 109.896,28.608 107.703,29.454 102.135 L 29.588 101.250 25.575 101.251 L 21.563 101.253 21.210 101.872 C 20.263 103.536,16.326 104.235,13.053 103.319 C 9.689 102.377,9.691 97.158,13.056 96.274 C 16.431 95.387,20.108 96.017,21.146 97.658 L 21.563 98.317 25.575 98.325 L 29.588 98.333 29.454 97.448 C 28.878 93.660,26.744 91.443,22.466 90.188 C 20.196 89.523,13.426 89.411,10.733 89.995 M279.483 89.995 C 274.069 91.169,271.717 93.829,271.506 99.017 C 271.183 106.975,274.778 109.896,284.896 109.896 C 293.598 109.896,297.358 107.703,298.204 102.135 L 298.338 101.250 294.325 101.251 L 290.313 101.253 289.960 101.872 C 289.013 103.536,285.076 104.235,281.803 103.319 C 278.439 102.377,278.441 97.158,281.806 96.274 C 285.181 95.387,288.858 96.017,289.896 97.658 L 290.313 98.317 294.325 98.325 L 298.338 98.333 298.204 97.448 C 297.628 93.660,295.494 91.443,291.216 90.188 C 288.946 89.523,282.176 89.411,279.483 89.995 M373.333 99.688 L 373.333 109.583 377.188 109.583 L 381.042 109.583 381.042 106.979 L 381.042 104.375 388.229 104.375 L 395.417 104.375 395.417 101.458 L 395.417 98.542 388.229 98.542 L 381.042 98.542 381.042 97.396 L 381.042 96.250 389.167 96.250 L 397.292 96.250 397.292 93.021 L 397.292 89.792 385.313 89.792 L 373.333 89.792 373.333 99.688 M63.125 99.792 L 63.125 109.583 66.976 109.583 L 70.827 109.583 70.882 103.780 L 70.938 97.977 76.020 103.780 L 81.102 109.583 85.551 109.583 L 90.000 109.583 90.000 99.792 L 90.000 90.000 86.045 90.000 L 82.091 90.000 82.035 94.909 L 81.979 99.818 77.923 94.909 L 73.867 90.000 68.496 90.000 L 63.125 90.000 63.125 99.792 M91.908 90.179 C 91.947 90.283,94.182 94.689,96.875 99.972 L 101.771 109.576 106.459 109.580 L 111.147 109.583 116.094 99.920 C 118.815 94.605,121.042 90.197,121.042 90.124 C 121.042 90.051,119.062 90.017,116.642 90.048 L 112.241 90.104 109.402 96.614 C 107.245 101.558,106.513 103.049,106.355 102.811 C 106.241 102.640,104.926 99.710,103.434 96.302 L 100.720 90.104 96.279 90.048 C 93.704 90.015,91.867 90.070,91.908 90.179 M122.917 99.792 L 122.917 109.583 134.479 109.583 L 146.042 109.583 146.042 106.979 L 146.042 104.375 138.333 104.375 L 130.625 104.375 130.625 103.229 L 130.625 102.083 138.333 102.083 L 146.042 102.083 146.042 99.792 L 146.042 97.500 138.333 97.500 L 130.625 97.500 130.625 96.250 L 130.625 95.000 138.333 95.000 L 146.042 95.000 146.042 92.500 L 146.042 90.000 134.479 90.000 L 122.917 90.000 122.917 99.792 M212.292 99.792 L 212.292 109.583 223.854 109.583 L 235.417 109.583 235.417 106.979 L 235.417 104.375 227.708 104.375 L 220.000 104.375 220.000 103.229 L 220.000 102.083 227.708 102.083 L 235.417 102.083 235.417 99.792 L 235.417 97.500 227.708 97.500 L 220.000 97.500 220.000 96.250 L 220.000 95.000 227.708 95.000 L 235.417 95.000 235.417 92.500 L 235.417 90.000 223.854 90.000 L 212.292 90.000 212.292 99.792 M240.625 99.792 L 240.625 109.583 244.476 109.583 L 248.327 109.583 248.382 103.780 L 248.438 97.977 253.520 103.780 L 258.602 109.583 263.051 109.583 L 267.500 109.583 267.500 99.792 L 267.500 90.000 263.545 90.000 L 259.591 90.000 259.535 94.909 L 259.479 99.818 255.423 94.909 L 251.367 90.000 245.996 90.000 L 240.625 90.000 240.625 99.792 M301.875 99.792 L 301.875 109.583 313.438 109.583 L 325.000 109.583 325.000 106.979 L 325.000 104.375 317.292 104.375 L 309.583 104.375 309.583 103.229 L 309.583 102.083 317.292 102.083 L 325.000 102.083 325.000 99.792 L 325.000 97.500 317.292 97.500 L 309.583 97.500 309.583 96.250 L 309.583 95.000 317.292 95.000 L 325.000 95.000 325.000 92.500 L 325.000 90.000 313.438 90.000 L 301.875 90.000 301.875 99.792 M48.125 96.055 C 50.689 96.470,51.667 97.501,51.667 99.792 C 51.667 102.239,50.620 103.206,47.564 103.586 C 43.027 104.149,40.564 102.814,40.564 99.792 C 40.564 96.652,43.338 95.281,48.125 96.055 M358.333 96.055 C 360.898 96.470,361.875 97.501,361.875 99.792 C 361.875 102.239,360.829 103.206,357.772 103.586 C 353.235 104.149,350.772 102.814,350.772 99.792 C 350.772 96.652,353.546 95.281,358.333 96.055 M108.958 115.362 C 100.501 115.673,96.875 118.753,96.875 125.625 C 96.875 132.997,100.509 135.729,110.313 135.729 C 120.021 135.729,123.750 132.925,123.750 125.625 C 123.750 118.244,119.063 114.991,108.958 115.362 M228.750 115.362 C 220.293 115.673,216.667 118.753,216.667 125.625 C 216.667 132.997,220.300 135.729,230.104 135.729 C 239.813 135.729,243.542 132.925,243.542 125.625 C 243.542 118.244,238.854 114.991,228.750 115.362 M175.625 118.854 L 175.625 122.083 180.104 122.083 L 184.583 122.083 184.583 128.750 L 184.583 135.417 188.542 135.417 L 192.500 135.417 192.500 128.750 L 192.500 122.083 196.979 122.083 L 201.458 122.083 201.458 118.854 L 201.458 115.625 188.542 115.625 L 175.625 115.625 175.625 118.854 M356.458 125.528 L 356.458 135.432 366.515 135.372 L 376.572 135.313 377.944 134.637 C 384.991 131.167,385.074 120.123,378.078 116.680 C 376.212 115.761,374.551 115.628,364.844 115.627 L 356.458 115.625 356.458 125.528 M20.208 125.625 L 20.208 135.417 24.063 135.417 L 27.917 135.417 27.917 125.625 L 27.917 115.833 24.063 115.833 L 20.208 115.833 20.208 125.625 M33.542 125.625 L 33.542 135.417 37.393 135.417 L 41.244 135.417 41.299 129.613 L 41.354 123.810 46.436 129.613 L 51.519 135.417 55.968 135.417 L 60.417 135.417 60.417 125.625 L 60.417 115.833 56.462 115.833 L 52.508 115.833 52.452 120.742 L 52.396 125.652 48.340 120.742 L 44.284 115.833 38.913 115.833 L 33.542 115.833 33.542 125.625 M66.042 125.625 L 66.042 135.417 69.893 135.417 L 73.744 135.417 73.799 129.613 L 73.854 123.810 78.936 129.613 L 84.019 135.417 88.468 135.417 L 92.917 135.417 92.917 125.625 L 92.917 115.833 88.962 115.833 L 85.008 115.833 84.952 120.742 L 84.896 125.652 80.840 120.742 L 76.784 115.833 71.413 115.833 L 66.042 115.833 66.042 125.625 M123.575 116.013 C 123.614 116.116,125.849 120.522,128.542 125.805 L 133.438 135.410 138.126 135.413 L 142.814 135.417 147.761 125.753 C 150.482 120.439,152.708 116.030,152.708 115.958 C 152.708 115.885,150.728 115.850,148.308 115.881 L 143.908 115.938 141.069 122.447 C 138.912 127.392,138.179 128.882,138.022 128.645 C 137.907 128.473,136.593 125.544,135.100 122.135 L 132.386 115.938 127.945 115.881 C 125.371 115.849,123.534 115.904,123.575 116.013 M205.208 125.625 L 205.208 135.417 209.063 135.417 L 212.917 135.417 212.917 125.625 L 212.917 115.833 209.063 115.833 L 205.208 115.833 205.208 125.625 M247.083 125.625 L 247.083 135.417 250.934 135.417 L 254.785 135.417 254.841 129.613 L 254.896 123.810 259.978 129.613 L 265.060 135.417 269.509 135.417 L 273.958 135.417 273.958 125.625 L 273.958 115.833 270.004 115.833 L 266.049 115.833 265.993 120.742 L 265.938 125.652 261.881 120.742 L 257.825 115.833 252.454 115.833 L 247.083 115.833 247.083 125.625 M301.948 116.090 C 301.653 116.564,291.667 135.263,291.667 135.341 C 291.667 135.383,293.642 135.417,296.057 135.417 L 300.448 135.417 301.214 133.753 L 301.979 132.089 306.736 132.086 L 311.494 132.083 312.251 133.750 L 313.008 135.417 317.455 135.417 L 321.903 135.417 320.650 133.073 C 319.961 131.784,317.617 127.401,315.440 123.333 L 311.482 115.938 306.797 115.882 C 303.189 115.838,302.075 115.886,301.948 116.090 M323.750 125.625 L 323.750 135.417 327.601 135.417 L 331.452 135.417 331.507 129.613 L 331.563 123.810 336.645 129.613 L 341.727 135.417 346.176 135.417 L 350.625 135.417 350.625 125.625 L 350.625 115.833 346.670 115.833 L 342.716 115.833 342.660 120.742 L 342.604 125.652 338.548 120.742 L 334.492 115.833 329.121 115.833 L 323.750 115.833 323.750 125.625 M112.292 121.889 C 114.856 122.303,115.833 123.335,115.833 125.625 C 115.833 128.072,114.787 129.040,111.731 129.419 C 107.193 129.982,104.730 128.647,104.730 125.625 C 104.730 122.486,107.505 121.115,112.292 121.889 M232.083 121.889 C 234.648 122.303,235.625 123.335,235.625 125.625 C 235.625 128.072,234.579 129.040,231.522 129.419 C 226.985 129.982,224.522 128.647,224.522 125.625 C 224.522 122.486,227.296 121.115,232.083 121.889 M307.998 124.562 C 308.641 125.982,309.167 127.177,309.167 127.218 C 309.167 127.258,308.089 127.292,306.771 127.292 C 305.453 127.292,304.375 127.231,304.375 127.157 C 304.375 126.969,306.725 121.863,306.782 121.927 C 306.808 121.956,307.355 123.141,307.998 124.562 M374.022 122.584 C 375.819 123.801,375.859 127.335,374.091 128.596 C 373.469 129.040,373.212 129.066,368.802 129.129 L 364.167 129.195 364.167 125.625 L 364.167 122.055 368.802 122.121 C 372.948 122.180,373.499 122.229,374.022 122.584 M229.692 141.037 C 224.277 142.211,221.925 144.871,221.715 150.058 C 221.391 158.017,224.986 160.938,235.104 160.938 C 243.807 160.938,247.566 158.745,248.412 153.177 L 248.547 152.292 244.534 152.293 L 240.521 152.294 240.168 152.914 C 239.221 154.578,235.284 155.276,232.012 154.360 C 228.648 153.419,228.650 148.199,232.015 147.315 C 235.389 146.429,239.066 147.059,240.104 148.700 L 240.521 149.359 244.534 149.367 L 248.547 149.375 248.412 148.490 C 247.837 144.701,245.703 142.484,241.425 141.230 C 239.154 140.564,232.384 140.453,229.692 141.037 M60.417 150.729 L 60.417 160.625 64.271 160.625 L 68.125 160.625 68.125 158.237 L 68.125 155.850 74.844 155.789 C 82.517 155.721,82.660 155.691,84.592 153.759 C 88.964 149.388,86.486 141.915,80.373 141.031 C 79.652 140.927,74.867 140.840,69.740 140.838 L 60.417 140.833 60.417 150.729 M90.208 150.715 L 90.208 160.625 94.063 160.625 L 97.917 160.625 97.917 158.229 L 97.917 155.833 101.224 155.833 L 104.532 155.833 106.359 158.229 L 108.185 160.625 112.451 160.625 L 116.717 160.625 116.003 159.740 C 113.651 156.821,112.437 155.125,112.650 155.054 C 117.306 153.502,117.820 145.307,113.450 142.300 C 111.458 140.930,111.754 140.962,100.469 140.880 L 90.208 140.805 90.208 150.715 M180.625 144.063 L 180.625 147.292 185.104 147.292 L 189.583 147.292 189.583 153.958 L 189.583 160.625 193.542 160.625 L 197.500 160.625 197.500 153.958 L 197.500 147.292 201.979 147.292 L 206.458 147.292 206.458 144.063 L 206.458 140.833 193.542 140.833 L 180.625 140.833 180.625 144.063 M319.167 144.063 L 319.167 147.292 323.646 147.292 L 328.125 147.292 328.125 153.958 L 328.125 160.625 332.083 160.625 L 336.042 160.625 336.042 153.958 L 336.042 147.292 340.521 147.292 L 345.000 147.292 345.000 144.063 L 345.000 140.833 332.083 140.833 L 319.167 140.833 319.167 144.063 M128.615 141.298 C 128.320 141.773,118.333 160.471,118.333 160.549 C 118.333 160.591,120.309 160.625,122.724 160.625 L 127.115 160.625 127.880 158.961 L 128.646 157.297 133.403 157.294 L 138.160 157.292 138.917 158.958 L 139.674 160.625 144.122 160.625 L 148.570 160.625 147.317 158.281 C 146.628 156.992,144.283 152.609,142.107 148.542 L 138.149 141.146 133.464 141.090 C 129.856 141.047,128.742 141.095,128.615 141.298 M210.417 150.833 L 210.417 160.625 214.271 160.625 L 218.125 160.625 218.125 150.833 L 218.125 141.042 214.271 141.042 L 210.417 141.042 210.417 150.833 M259.032 141.298 C 258.737 141.773,248.750 160.471,248.750 160.549 C 248.750 160.591,250.726 160.625,253.141 160.625 L 257.531 160.625 258.297 158.961 L 259.063 157.297 263.820 157.294 L 268.577 157.292 269.334 158.958 L 270.091 160.625 274.539 160.625 L 278.986 160.625 277.734 158.281 C 277.045 156.992,274.700 152.609,272.523 148.542 L 268.566 141.146 263.881 141.090 C 260.273 141.047,259.158 141.095,259.032 141.298 M280.833 150.833 L 280.833 160.625 292.396 160.625 L 303.958 160.625 303.958 157.500 L 303.958 154.375 296.250 154.375 L 288.542 154.375 288.542 147.708 L 288.542 141.042 284.688 141.042 L 280.833 141.042 280.833 150.833 M307.708 150.833 L 307.708 160.625 311.563 160.625 L 315.417 160.625 315.417 150.833 L 315.417 141.042 311.563 141.042 L 307.708 141.042 307.708 150.833 M346.875 141.108 C 346.875 141.144,349.308 144.027,352.281 147.514 L 357.687 153.854 357.698 157.240 L 357.708 160.625 361.667 160.625 L 365.625 160.625 365.625 157.329 L 365.625 154.032 367.648 151.652 C 368.761 150.342,371.248 147.419,373.175 145.156 L 376.678 141.042 371.933 141.054 L 367.188 141.066 364.504 144.387 C 363.027 146.214,361.762 147.704,361.691 147.700 C 361.620 147.695,360.356 146.195,358.881 144.366 L 356.200 141.042 351.537 141.042 C 348.973 141.042,346.875 141.071,346.875 141.108 M78.447 147.386 C 78.728 147.668,78.958 148.141,78.958 148.438 C 78.958 148.734,78.728 149.207,78.447 149.489 L 77.936 150.000 73.030 150.000 L 68.125 150.000 68.125 148.438 L 68.125 146.875 73.030 146.875 L 77.936 146.875 78.447 147.386 M108.239 147.386 C 108.520 147.668,108.750 148.141,108.750 148.438 C 108.750 148.734,108.520 149.207,108.239 149.489 L 107.727 150.000 102.822 150.000 L 97.917 150.000 97.917 148.438 L 97.917 146.875 102.822 146.875 L 107.727 146.875 108.239 147.386 M134.664 149.770 C 135.307 151.190,135.833 152.386,135.833 152.426 C 135.833 152.467,134.755 152.500,133.438 152.500 C 132.120 152.500,131.042 152.440,131.042 152.366 C 131.042 152.178,133.392 147.071,133.449 147.135 C 133.474 147.164,134.021 148.350,134.664 149.770 M265.081 149.770 C 265.724 151.190,266.250 152.386,266.250 152.426 C 266.250 152.467,265.172 152.500,263.854 152.500 C 262.536 152.500,261.458 152.440,261.458 152.366 C 261.458 152.178,263.808 147.071,263.866 147.135 C 263.891 147.164,264.438 148.350,265.081 149.770 " stroke="none" fill="#f4f4fc" fill-rule="evenodd"></path><path id="path1" d="M151.458 67.396 L 151.458 70.625 155.938 70.625 L 160.417 70.625 160.417 77.292 L 160.417 83.958 164.375 83.958 L 168.333 83.958 168.333 77.292 L 168.333 70.625 172.813 70.625 L 177.292 70.625 177.292 67.396 L 177.292 64.167 164.375 64.167 L 151.458 64.167 151.458 67.396 M151.458 99.673 L 151.458 109.583 155.313 109.583 L 159.167 109.583 159.167 107.188 L 159.167 104.792 162.474 104.792 L 165.782 104.792 167.609 107.188 L 169.435 109.583 173.701 109.583 L 177.967 109.583 177.253 108.698 C 174.901 105.780,173.687 104.084,173.900 104.013 C 178.556 102.461,179.070 94.265,174.700 91.259 C 172.708 89.888,173.004 89.920,161.719 89.838 L 151.458 89.764 151.458 99.673 M169.489 96.345 C 169.770 96.626,170.000 97.099,170.000 97.396 C 170.000 97.693,169.770 98.166,169.489 98.447 L 168.977 98.958 164.072 98.958 L 159.167 98.958 159.167 97.396 L 159.167 95.833 164.072 95.833 L 168.977 95.833 169.489 96.345 M159.448 116.090 C 159.153 116.564,149.167 135.263,149.167 135.341 C 149.167 135.383,151.142 135.417,153.557 135.417 L 157.948 135.417 158.714 133.753 L 159.479 132.089 164.236 132.086 L 168.994 132.083 169.751 133.750 L 170.508 135.417 174.955 135.417 L 179.403 135.417 178.150 133.073 C 177.461 131.784,175.117 127.401,172.940 123.333 L 168.982 115.938 164.297 115.882 C 160.689 115.838,159.575 115.886,159.448 116.090 M165.498 124.562 C 166.141 125.982,166.667 127.177,166.667 127.218 C 166.667 127.258,165.589 127.292,164.271 127.292 C 162.953 127.292,161.875 127.231,161.875 127.157 C 161.875 126.969,164.225 121.863,164.282 121.927 C 164.308 121.956,164.855 123.141,165.498 124.562 M150.417 150.833 L 150.417 160.625 154.271 160.625 L 158.125 160.625 158.125 157.292 L 158.125 153.958 159.677 153.958 L 161.228 153.958 164.805 157.292 L 168.381 160.625 173.587 160.625 L 178.793 160.625 175.178 157.138 C 173.189 155.220,170.913 153.028,170.118 152.266 L 168.674 150.881 172.722 146.943 C 174.949 144.777,177.240 142.565,177.813 142.028 L 178.854 141.051 173.621 141.046 L 168.388 141.042 164.837 144.375 L 161.286 147.708 159.705 147.708 L 158.125 147.708 158.125 144.375 L 158.125 141.042 154.271 141.042 L 150.417 141.042 150.417 150.833 " stroke="none" fill="#2b9d4b" fill-rule="evenodd"></path><path id="path2" d="" stroke="none" fill="#f8bcbc" fill-rule="evenodd"></path><path id="path3" d="" stroke="none" fill="#f8bcbc" fill-rule="evenodd"></path><path id="path4" d="" stroke="none" fill="#f8bcbc" fill-rule="evenodd"></path></g></svg>