<?xml version="1.0" standalone="no"?>
<!DOCTYPE svg PUBLIC "-//W3C//DTD SVG 20010904//EN"
 "http://www.w3.org/TR/2001/REC-SVG-20010904/DTD/svg10.dtd">
<svg version="1.0" xmlns="http://www.w3.org/2000/svg"
 width="500.000000pt" height="500.000000pt" viewBox="0 0 500.000000 500.000000"
 preserveAspectRatio="xMidYMid meet">
<metadata>
Created by potrace 1.14, written by Peter Selinger 2001-2017
</metadata>
<g transform="translate(0.000000,500.000000) scale(0.100000,-0.100000)"
fill="#000000" stroke="none">
<path d="M550 4980 c0 -5 -6 -7 -14 -4 -17 7 -135 -34 -160 -55 -13 -11 -17
-11 -11 -2 4 7 -20 -5 -54 -28 -69 -47 -161 -133 -161 -150 0 -6 -4 -11 -10
-11 -5 0 -17 -15 -26 -32 -9 -18 -21 -36 -26 -39 -5 -3 -10 -9 -9 -12 0 -4 -7
-24 -16 -44 -9 -21 -16 -44 -16 -50 0 -7 -3 -13 -7 -13 -5 0 -10 -22 -13 -62
-1 -10 -5 -18 -9 -18 -9 0 -5 -3921 4 -3963 4 -15 12 -34 18 -42 7 -8 9 -15 5
-15 -4 0 0 -11 9 -25 9 -14 14 -25 11 -25 -7 0 38 -81 68 -125 30 -43 130
-138 164 -155 15 -8 30 -18 33 -22 9 -12 138 -67 144 -61 3 3 12 0 20 -6 8 -7
19 -10 25 -7 5 3 12 0 14 -6 4 -10 6 -9 6 1 1 10 4 11 14 3 14 -12 3894 -11
3935 0 13 4 33 10 45 13 48 13 147 58 147 66 0 5 3 8 8 7 23 -8 157 118 204
192 45 71 81 148 81 177 0 12 3 21 6 18 4 -2 8 6 10 18 8 55 9 3926 1 3957 -5
19 -13 52 -19 73 -10 43 -70 163 -98 198 -36 46 -136 139 -149 139 -8 0 -14 4
-14 9 0 10 -119 71 -138 71 -7 0 -12 5 -12 11 0 5 -4 8 -9 5 -5 -3 -31 1 -57
9 -42 13 -310 15 -1996 15 -1233 0 -1948 -4 -1948 -10z"/>
</g>
</svg>
